# xmcd
# Copyright (C) 1995-1998 Ti Kan
#
# Track frame offsets:
#       182
#       17637
#       27712
#       39912
#       53600
#       66975
#       79062
#       88362
#       104337
#       119987
#       132137
#       143150
#       155737
#       166825
#       186287
#       196625
#
# Disc length: 2776 seconds
#
# Revision: 0
# Processed by: cddbd v1.5.1PL0 Copyright (c) Steve Scherf et al.
# Submitted via: CD-Transfer v1.0
#
DISCID=df0ad610
DTITLE=Ländler Super-Hitparade 2 - 
DYEAR=96
DGENRE=
TTITLE0=Bim Purehof-Peti
TTITLE1=Bi s'Jäger's Hannes
TTITLE2=Bockbier
TTITLE3=Häsch Zyt
TTITLE4=s'Bündner Meiteli
TTITLE5=Mir göhnd no lang nid hei
TTITLE6=Es Toggeburger-Grüessli
TTITLE7=Bim Walti i de Bibliothek
TTITLE8=Tante Martha
TTITLE9=Urnerbodä-Kafi
TTITLE10=Heirassa-Polka
TTITLE11=Uf dr Alp
TTITLE12=Birchermüesli
TTITLE13=Sternenklar
TTITLE14=Roman fährt Automobil
TTITLE15=Ueli
EXTD=
EXTT0=
EXTT1=
EXTT2=
EXTT3=
EXTT4=
EXTT5=
EXTT6=
EXTT7=
EXTT8=
EXTT9=
EXTT10=
EXTT11=
EXTT12=
EXTT13=
EXTT14=
EXTT15=
PLAYORDER=
